# xmcd
#
# Track frame offsets:
#	150
#	15255
#	31790
#	47295
#	62211
#	77185
#	93238
#	108290
#	124890
#	140398
#	158632
#	174837
#	188579
#	189339
#	190402
#	191174
#	191938
#	192690
#
# Disc length: 2577 seconds
#
# Revision: 1
# Processed by: cddbd v1.5.2PL0 Copyright (c) Steve Scherf et al.
# Submitted via: audiograbber 1.83.01
#
DISCID=ec0a0f12
DTITLE=Various Artist - CDX Volume 591 (March 17, 2014)
DYEAR=2014
DGENRE=Country
TTITLE0=Kacey Musgraves - Keep It To Yourself 
TTITLE1=Rachel Holder - Shining Now
TTITLE2=Jon Pardi - What I Can't Put Down 
TTITLE3=Ashton Shepherd - Seventeen Again
TTITLE4=Joe Allen - Can't Take These Things 
TTITLE5=Hub Reynolds Jr. - Hell I'm Just Me 
TTITLE6=Pat Waters and Rachel Sizemore - Hey Paula
TTITLE7=Markus Fox - I'm Still Coming Home
TTITLE8=Jeff Maddox - Running
TTITLE9=Ray Price - Beauty Lies In The Eyes Of the Beholder (with Vince Gill)
TTITLE10=Ray Price - I Wish I Was 18 Again
TTITLE11=Ray Price - This Thing Of Ours
TTITLE12=Mary Sarah - Liner - Home Town Country 
TTITLE13=Mary Sarah - Liner - My New Single
TTITLE14=Mary Sarah - Liner - Super Country Greatest Hits
TTITLE15=Mary Sarah - Liner - The Best In Country Music
TTITLE16=Mary Sarah - Liner - Today's Best Country
TTITLE17=Mary Sarah - Liner - Today's Hot Country Music
EXTD=
EXTT0=
EXTT1=
EXTT2=
EXTT3=
EXTT4=
EXTT5=
EXTT6=
EXTT7=
EXTT8=
EXTT9=
EXTT10=
EXTT11=
EXTT12=
EXTT13=
EXTT14=
EXTT15=
EXTT16=
EXTT17=
PLAYORDER=
